<svg width="1920" height="984" viewBox="0 0 1920 984" fill="none" xmlns="http://www.w3.org/2000/svg">
<path d="M1749.89 319.121C1749.89 328.947 1742.07 336.915 1732.41 336.915C1722.75 336.915 1714.92 328.947 1714.92 319.121C1714.92 309.293 1722.75 301.327 1732.41 301.327C1742.04 301.327 1749.89 309.293 1749.89 319.121Z" stroke="#04D361" stroke-width="3" stroke-miterlimit="10" stroke-linecap="round" stroke-linejoin="round"/>
<path d="M1745.06 331.396L1757.4 343.98" stroke="#04D361" stroke-width="3" stroke-miterlimit="10" stroke-linecap="round" stroke-linejoin="round"/>
<path d="M474.597 266.732L492.998 285.452" stroke="#04D361" stroke-width="3" stroke-miterlimit="10" stroke-linecap="round" stroke-linejoin="round"/>
<path d="M492.998 266.732L474.597 285.452" stroke="#04D361" stroke-width="3" stroke-miterlimit="10" stroke-linecap="round" stroke-linejoin="round"/>
<path d="M1529.41 708.189L1547.81 726.91" stroke="#04D361" stroke-width="3" stroke-miterlimit="10" stroke-linecap="round" stroke-linejoin="round"/>
<path d="M1547.81 708.189L1529.41 726.91" stroke="#04D361" stroke-width="3" stroke-miterlimit="10" stroke-linecap="round" stroke-linejoin="round"/>
<path d="M523.983 872.77V899.242" stroke="#04D361" stroke-width="3" stroke-miterlimit="10" stroke-linecap="round" stroke-linejoin="round"/>
<path d="M537.027 886.004H510.974" stroke="#04D361" stroke-width="3" stroke-miterlimit="10" stroke-linecap="round" stroke-linejoin="round"/>
<path d="M1103.36 19.2556C1103.36 28.1213 1096.29 35.3441 1087.55 35.3441C1078.83 35.3441 1071.73 28.1523 1071.73 19.2556C1071.73 10.3897 1078.8 3.16684 1087.55 3.16684C1096.29 3.19784 1103.36 10.3897 1103.36 19.2556Z" stroke="#04D361" stroke-width="3" stroke-miterlimit="10" stroke-linecap="round" stroke-linejoin="round"/>
<path d="M1335.38 964.12C1335.38 972.986 1328.31 980.208 1319.56 980.208C1310.85 980.208 1303.75 973.016 1303.75 964.12C1303.75 955.253 1310.82 948.031 1319.56 948.031C1328.31 948.062 1335.38 955.253 1335.38 964.12Z" stroke="#04D361" stroke-width="3" stroke-miterlimit="10" stroke-linecap="round" stroke-linejoin="round"/>
<path d="M7.10714 657.784C10.2704 657.784 12.8348 655.177 12.8348 651.958C12.8348 648.74 10.2704 646.131 7.10714 646.131C3.94384 646.131 1.37947 648.74 1.37947 651.958C1.37947 655.177 3.94384 657.784 7.10714 657.784Z" fill="#9871F5"/>
<path d="M47.1149 657.784C50.2783 657.784 52.8427 655.177 52.8427 651.958C52.8427 648.74 50.2783 646.131 47.1149 646.131C43.9517 646.131 41.3873 648.74 41.3873 651.958C41.3873 655.177 43.9517 657.784 47.1149 657.784Z" fill="#9871F5"/>
<path d="M87.0943 657.784C90.2577 657.784 92.8219 655.177 92.8219 651.958C92.8219 648.74 90.2577 646.131 87.0943 646.131C83.9309 646.131 81.3667 648.74 81.3667 651.958C81.3667 655.177 83.9309 657.784 87.0943 657.784Z" fill="#9871F5"/>
<path d="M127.105 657.784C130.268 657.784 132.832 655.177 132.832 651.958C132.832 648.74 130.268 646.131 127.105 646.131C123.941 646.131 121.377 648.74 121.377 651.958C121.377 655.177 123.941 657.784 127.105 657.784Z" fill="#9871F5"/>
<path d="M167.082 657.784C170.246 657.784 172.81 655.177 172.81 651.958C172.81 648.74 170.246 646.131 167.082 646.131C163.919 646.131 161.355 648.74 161.355 651.958C161.355 655.177 163.919 657.784 167.082 657.784Z" fill="#9871F5"/>
<path d="M207.093 657.784C210.255 657.784 212.82 655.177 212.82 651.958C212.82 648.74 210.255 646.131 207.093 646.131C203.928 646.131 201.363 648.74 201.363 651.958C201.363 655.177 203.928 657.784 207.093 657.784Z" fill="#9871F5"/>
<path d="M7.1063 698.455C10.2696 698.455 12.834 695.846 12.834 692.628C12.834 689.411 10.2696 686.803 7.1063 686.803C3.943 686.803 1.37863 689.411 1.37863 692.628C1.37863 695.846 3.943 698.455 7.1063 698.455Z" fill="#9871F5"/>
<path d="M47.1149 698.455C50.2783 698.455 52.8427 695.846 52.8427 692.628C52.8427 689.411 50.2783 686.803 47.1149 686.803C43.9517 686.803 41.3873 689.411 41.3873 692.628C41.3873 695.846 43.9517 698.455 47.1149 698.455Z" fill="#9871F5"/>
<path d="M87.0951 698.455C90.2585 698.455 92.8227 695.846 92.8227 692.628C92.8227 689.411 90.2585 686.803 87.0951 686.803C83.9318 686.803 81.3676 689.411 81.3676 692.628C81.3676 695.846 83.9318 698.455 87.0951 698.455Z" fill="#9871F5"/>
<path d="M127.105 698.455C130.268 698.455 132.832 695.846 132.832 692.628C132.832 689.411 130.268 686.803 127.105 686.803C123.941 686.803 121.377 689.411 121.377 692.628C121.377 695.846 123.941 698.455 127.105 698.455Z" fill="#9871F5"/>
<path d="M167.082 698.455C170.246 698.455 172.81 695.846 172.81 692.628C172.81 689.411 170.246 686.803 167.082 686.803C163.919 686.803 161.355 689.411 161.355 692.628C161.355 695.846 163.919 698.455 167.082 698.455Z" fill="#9871F5"/>
<path d="M207.093 698.455C210.255 698.455 212.82 695.846 212.82 692.628C212.82 689.411 210.255 686.803 207.093 686.803C203.928 686.803 201.363 689.411 201.363 692.628C201.363 695.846 203.928 698.455 207.093 698.455Z" fill="#9871F5"/>
<path d="M7.1063 739.158C10.2696 739.158 12.834 736.549 12.834 733.331C12.834 730.112 10.2696 727.505 7.1063 727.505C3.943 727.505 1.37863 730.112 1.37863 733.331C1.37863 736.549 3.943 739.158 7.1063 739.158Z" fill="#9871F5"/>
<path d="M47.1149 739.158C50.2783 739.158 52.8427 736.549 52.8427 733.331C52.8427 730.112 50.2783 727.505 47.1149 727.505C43.9517 727.505 41.3873 730.112 41.3873 733.331C41.3873 736.549 43.9517 739.158 47.1149 739.158Z" fill="#9871F5"/>
<path d="M87.0951 739.158C90.2585 739.158 92.8227 736.549 92.8227 733.331C92.8227 730.112 90.2585 727.505 87.0951 727.505C83.9318 727.505 81.3676 730.112 81.3676 733.331C81.3676 736.549 83.9318 739.158 87.0951 739.158Z" fill="#9871F5"/>
<path d="M127.105 739.158C130.268 739.158 132.832 736.549 132.832 733.331C132.832 730.112 130.268 727.505 127.105 727.505C123.941 727.505 121.377 730.112 121.377 733.331C121.377 736.549 123.941 739.158 127.105 739.158Z" fill="#9871F5"/>
<path d="M167.082 739.158C170.246 739.158 172.81 736.549 172.81 733.331C172.81 730.112 170.246 727.505 167.082 727.505C163.919 727.505 161.355 730.112 161.355 733.331C161.355 736.549 163.919 739.158 167.082 739.158Z" fill="#9871F5"/>
<path d="M207.093 739.158C210.255 739.158 212.82 736.549 212.82 733.331C212.82 730.112 210.255 727.505 207.093 727.505C203.928 727.505 201.363 730.112 201.363 733.331C201.363 736.549 203.928 739.158 207.093 739.158Z" fill="#9871F5"/>
<path d="M7.1063 779.83C10.2696 779.83 12.834 777.221 12.834 774.002C12.834 770.784 10.2696 768.175 7.1063 768.175C3.943 768.175 1.37863 770.784 1.37863 774.002C1.37863 777.221 3.943 779.83 7.1063 779.83Z" fill="#9871F5"/>
<path d="M47.1149 779.83C50.2783 779.83 52.8427 777.221 52.8427 774.002C52.8427 770.784 50.2783 768.175 47.1149 768.175C43.9517 768.175 41.3873 770.784 41.3873 774.002C41.3873 777.221 43.9517 779.83 47.1149 779.83Z" fill="#9871F5"/>
<path d="M87.0951 779.83C90.2585 779.83 92.8227 777.221 92.8227 774.002C92.8227 770.784 90.2585 768.175 87.0951 768.175C83.9318 768.175 81.3676 770.784 81.3676 774.002C81.3676 777.221 83.9318 779.83 87.0951 779.83Z" fill="#9871F5"/>
<path d="M127.105 779.83C130.268 779.83 132.832 777.221 132.832 774.002C132.832 770.784 130.268 768.175 127.105 768.175C123.941 768.175 121.377 770.784 121.377 774.002C121.377 777.221 123.941 779.83 127.105 779.83Z" fill="#9871F5"/>
<path d="M167.082 779.83C170.246 779.83 172.81 777.221 172.81 774.002C172.81 770.784 170.246 768.175 167.082 768.175C163.919 768.175 161.355 770.784 161.355 774.002C161.355 777.221 163.919 779.83 167.082 779.83Z" fill="#9871F5"/>
<path d="M207.093 779.83C210.255 779.83 212.82 777.221 212.82 774.002C212.82 770.784 210.255 768.175 207.093 768.175C203.928 768.175 201.363 770.784 201.363 774.002C201.363 777.221 203.928 779.83 207.093 779.83Z" fill="#9871F5"/>
<path d="M1326.82 251.866C1329.98 251.866 1332.55 249.257 1332.55 246.038C1332.55 242.82 1329.98 240.211 1326.82 240.211C1323.65 240.211 1321.09 242.82 1321.09 246.038C1321.09 249.257 1323.65 251.866 1326.82 251.866Z" fill="#9871F5"/>
<path d="M1366.79 251.866C1369.96 251.866 1372.52 249.257 1372.52 246.038C1372.52 242.82 1369.96 240.211 1366.79 240.211C1363.63 240.211 1361.07 242.82 1361.07 246.038C1361.07 249.257 1363.63 251.866 1366.79 251.866Z" fill="#9871F5"/>
<path d="M1406.8 251.866C1409.97 251.866 1412.53 249.257 1412.53 246.038C1412.53 242.82 1409.97 240.211 1406.8 240.211C1403.64 240.211 1401.08 242.82 1401.08 246.038C1401.08 249.257 1403.64 251.866 1406.8 251.866Z" fill="#9871F5"/>
<path d="M1326.82 292.567C1329.98 292.567 1332.54 289.958 1332.54 286.739C1332.54 283.523 1329.98 280.914 1326.82 280.914C1323.65 280.914 1321.09 283.523 1321.09 286.739C1321.09 289.958 1323.65 292.567 1326.82 292.567Z" fill="#9871F5"/>
<path d="M1366.79 292.567C1369.96 292.567 1372.52 289.958 1372.52 286.741C1372.52 283.523 1369.96 280.914 1366.79 280.914C1363.63 280.914 1361.07 283.523 1361.07 286.741C1361.07 289.958 1363.63 292.567 1366.79 292.567Z" fill="#9871F5"/>
<path d="M1406.8 292.567C1409.97 292.567 1412.53 289.958 1412.53 286.741C1412.53 283.523 1409.97 280.914 1406.8 280.914C1403.64 280.914 1401.08 283.523 1401.08 286.741C1401.08 289.958 1403.64 292.567 1406.8 292.567Z" fill="#9871F5"/>
<path d="M448.637 39.0695C451.8 39.0695 454.365 36.4608 454.365 33.2427C454.365 30.0245 451.8 27.4158 448.637 27.4158C445.474 27.4158 442.91 30.0245 442.91 33.2427C442.91 36.4608 445.474 39.0695 448.637 39.0695Z" fill="#9871F5"/>
<path d="M488.614 39.0695C491.777 39.0695 494.342 36.4608 494.342 33.2427C494.342 30.0245 491.777 27.4158 488.614 27.4158C485.451 27.4158 482.887 30.0245 482.887 33.2427C482.887 36.4608 485.451 39.0695 488.614 39.0695Z" fill="#9871F5"/>
<path d="M528.624 39.0695C531.787 39.0695 534.351 36.4608 534.351 33.2427C534.351 30.0245 531.787 27.4158 528.624 27.4158C525.459 27.4158 522.895 30.0245 522.895 33.2427C522.895 36.4608 525.459 39.0695 528.624 39.0695Z" fill="#9871F5"/>
<path d="M448.635 79.7718C451.8 79.7718 454.365 77.1628 454.365 73.9447C454.365 70.7266 451.8 68.1179 448.635 68.1179C445.473 68.1179 442.908 70.7266 442.908 73.9447C442.908 77.1628 445.473 79.7718 448.635 79.7718Z" fill="#9871F5"/>
<path d="M488.614 79.7718C491.777 79.7718 494.342 77.1628 494.342 73.9447C494.342 70.7266 491.777 68.1179 488.614 68.1179C485.451 68.1179 482.887 70.7266 482.887 73.9447C482.887 77.1628 485.451 79.7718 488.614 79.7718Z" fill="#9871F5"/>
<path d="M528.626 79.7718C531.789 79.7718 534.353 77.1628 534.353 73.9447C534.353 70.7266 531.789 68.1179 528.626 68.1179C525.461 68.1179 522.897 70.7266 522.897 73.9447C522.897 77.1628 525.461 79.7718 528.626 79.7718Z" fill="#9871F5"/>
<path d="M1914.27 657.784C1917.43 657.784 1920 655.177 1920 651.958C1920 648.74 1917.43 646.131 1914.27 646.131C1911.1 646.131 1908.55 648.74 1908.55 651.958C1908.55 655.177 1911.1 657.784 1914.27 657.784Z" fill="#9871F5"/>
<path d="M1914.27 698.487C1917.43 698.487 1920 695.878 1920 692.659C1920 689.443 1917.43 686.834 1914.27 686.834C1911.1 686.834 1908.55 689.443 1908.55 692.659C1908.55 695.878 1911.1 698.487 1914.27 698.487Z" fill="#9871F5"/>
<path d="M1914.27 739.158C1917.43 739.158 1920 736.549 1920 733.331C1920 730.112 1917.43 727.503 1914.27 727.503C1911.1 727.503 1908.55 730.112 1908.55 733.331C1908.55 736.549 1911.1 739.158 1914.27 739.158Z" fill="#9871F5"/>
<path d="M1914.27 779.861C1917.43 779.861 1920 777.252 1920 774.034C1920 770.815 1917.43 768.206 1914.27 768.206C1911.1 768.206 1908.55 770.815 1908.55 774.034C1908.55 777.252 1911.1 779.861 1914.27 779.861Z" fill="#9871F5"/>
<path d="M1914.27 820.531C1917.43 820.531 1920 817.923 1920 814.705C1920 811.486 1917.43 808.878 1914.27 808.878C1911.1 808.878 1908.55 811.486 1908.55 814.705C1908.55 817.923 1911.1 820.531 1914.27 820.531Z" fill="#9871F5"/>
<path d="M1914.27 861.233C1917.43 861.233 1920 858.624 1920 855.406C1920 852.187 1917.43 849.58 1914.27 849.58C1911.1 849.58 1908.55 852.187 1908.55 855.406C1908.55 858.624 1911.1 861.233 1914.27 861.233Z" fill="#9871F5"/>
<path d="M1914.27 901.905C1917.43 901.905 1920 899.296 1920 896.077C1920 892.859 1917.43 890.25 1914.27 890.25C1911.1 890.25 1908.55 892.859 1908.55 896.077C1908.55 899.296 1911.1 901.905 1914.27 901.905Z" fill="#9871F5"/>
<path d="M1874.26 657.784C1877.43 657.784 1879.99 655.177 1879.99 651.958C1879.99 648.74 1877.43 646.131 1874.26 646.131C1871.11 646.131 1868.54 648.74 1868.54 651.958C1868.54 655.177 1871.11 657.784 1874.26 657.784Z" fill="#9871F5"/>
<path d="M1874.26 698.487C1877.43 698.487 1879.99 695.878 1879.99 692.659C1879.99 689.443 1877.43 686.834 1874.26 686.834C1871.11 686.834 1868.54 689.443 1868.54 692.659C1868.54 695.878 1871.11 698.487 1874.26 698.487Z" fill="#9871F5"/>
<path d="M1874.26 739.158C1877.43 739.158 1879.99 736.549 1879.99 733.331C1879.99 730.112 1877.43 727.503 1874.26 727.503C1871.11 727.503 1868.54 730.112 1868.54 733.331C1868.54 736.549 1871.11 739.158 1874.26 739.158Z" fill="#9871F5"/>
<path d="M1874.26 779.861C1877.43 779.861 1879.99 777.252 1879.99 774.034C1879.99 770.815 1877.43 768.206 1874.26 768.206C1871.11 768.206 1868.54 770.815 1868.54 774.034C1868.54 777.252 1871.11 779.861 1874.26 779.861Z" fill="#9871F5"/>
<path d="M1874.26 820.531C1877.43 820.531 1879.99 817.923 1879.99 814.705C1879.99 811.486 1877.43 808.878 1874.26 808.878C1871.11 808.878 1868.54 811.486 1868.54 814.705C1868.54 817.923 1871.11 820.531 1874.26 820.531Z" fill="#9871F5"/>
<path d="M1874.26 861.233C1877.43 861.233 1879.99 858.624 1879.99 855.406C1879.99 852.187 1877.43 849.58 1874.26 849.58C1871.11 849.58 1868.54 852.187 1868.54 855.406C1868.54 858.624 1871.11 861.233 1874.26 861.233Z" fill="#9871F5"/>
<path d="M1874.26 901.905C1877.43 901.905 1879.99 899.296 1879.99 896.077C1879.99 892.859 1877.43 890.25 1874.26 890.25C1871.11 890.25 1868.54 892.859 1868.54 896.077C1868.54 899.296 1871.11 901.905 1874.26 901.905Z" fill="#9871F5"/>
<path d="M1834.29 657.784C1837.44 657.784 1840.01 655.177 1840.01 651.958C1840.01 648.74 1837.44 646.131 1834.29 646.131C1831.11 646.131 1828.56 648.74 1828.56 651.958C1828.56 655.177 1831.11 657.784 1834.29 657.784Z" fill="#9871F5"/>
<path d="M1834.29 698.487C1837.44 698.487 1840.01 695.878 1840.01 692.659C1840.01 689.443 1837.44 686.834 1834.29 686.834C1831.11 686.834 1828.56 689.443 1828.56 692.659C1828.56 695.878 1831.11 698.487 1834.29 698.487Z" fill="#9871F5"/>
<path d="M1834.29 739.158C1837.44 739.158 1840.01 736.549 1840.01 733.331C1840.01 730.112 1837.44 727.503 1834.29 727.503C1831.11 727.503 1828.56 730.112 1828.56 733.331C1828.56 736.549 1831.11 739.158 1834.29 739.158Z" fill="#9871F5"/>
<path d="M1834.29 779.861C1837.44 779.861 1840.01 777.252 1840.01 774.034C1840.01 770.815 1837.44 768.206 1834.29 768.206C1831.11 768.206 1828.56 770.815 1828.56 774.034C1828.56 777.252 1831.11 779.861 1834.29 779.861Z" fill="#9871F5"/>
<path d="M1834.29 820.531C1837.44 820.531 1840.01 817.923 1840.01 814.705C1840.01 811.486 1837.44 808.878 1834.29 808.878C1831.11 808.878 1828.56 811.486 1828.56 814.705C1828.56 817.923 1831.11 820.531 1834.29 820.531Z" fill="#9871F5"/>
<path d="M1834.29 861.233C1837.44 861.233 1840.01 858.624 1840.01 855.406C1840.01 852.187 1837.44 849.58 1834.29 849.58C1831.11 849.58 1828.56 852.187 1828.56 855.406C1828.56 858.624 1831.11 861.233 1834.29 861.233Z" fill="#9871F5"/>
<path d="M1834.29 901.905C1837.44 901.905 1840.01 899.296 1840.01 896.077C1840.01 892.859 1837.44 890.25 1834.29 890.25C1831.11 890.25 1828.56 892.859 1828.56 896.077C1828.56 899.296 1831.11 901.905 1834.29 901.905Z" fill="#9871F5"/>
<path d="M1794.27 657.784C1797.45 657.784 1800 655.177 1800 651.958C1800 648.74 1797.45 646.131 1794.27 646.131C1791.12 646.131 1788.55 648.74 1788.55 651.958C1788.55 655.177 1791.12 657.784 1794.27 657.784Z" fill="#9871F5"/>
<path d="M1794.27 698.487C1797.45 698.487 1800 695.878 1800 692.659C1800 689.443 1797.45 686.834 1794.27 686.834C1791.1 686.834 1788.55 689.443 1788.55 692.659C1788.55 695.878 1791.1 698.487 1794.27 698.487Z" fill="#9871F5"/>
<path d="M1794.27 739.158C1797.45 739.158 1800 736.549 1800 733.331C1800 730.112 1797.45 727.505 1794.27 727.505C1791.1 727.505 1788.55 730.112 1788.55 733.331C1788.55 736.549 1791.1 739.158 1794.27 739.158Z" fill="#9871F5"/>
<path d="M1794.27 779.861C1797.45 779.861 1800 777.252 1800 774.034C1800 770.815 1797.45 768.206 1794.27 768.206C1791.1 768.206 1788.55 770.815 1788.55 774.034C1788.55 777.252 1791.1 779.861 1794.27 779.861Z" fill="#9871F5"/>
<path d="M1794.27 820.531C1797.45 820.531 1800 817.923 1800 814.705C1800 811.486 1797.45 808.878 1794.27 808.878C1791.1 808.878 1788.55 811.486 1788.55 814.705C1788.55 817.923 1791.1 820.531 1794.27 820.531Z" fill="#9871F5"/>
<path d="M1794.27 861.233C1797.45 861.233 1800 858.624 1800 855.406C1800 852.187 1797.45 849.58 1794.27 849.58C1791.1 849.58 1788.55 852.187 1788.55 855.406C1788.55 858.624 1791.1 861.233 1794.27 861.233Z" fill="#9871F5"/>
<path d="M1794.27 901.905C1797.45 901.905 1800 899.296 1800 896.077C1800 892.859 1797.45 890.25 1794.27 890.25C1791.1 890.25 1788.55 892.859 1788.55 896.077C1788.55 899.296 1791.1 901.905 1794.27 901.905Z" fill="#9871F5"/>
</svg>
